<?xml version="1.0" encoding="UTF-8" standalone="no"?>
<svg
   xmlns:dc="http://purl.org/dc/elements/1.1/"
   xmlns:cc="http://creativecommons.org/ns#"
   xmlns:rdf="http://www.w3.org/1999/02/22-rdf-syntax-ns#"
   xmlns:svg="http://www.w3.org/2000/svg"
   xmlns="http://www.w3.org/2000/svg"
   viewBox="0 0 531.84003 531.85333"
   height="531.85333"
   width="531.84003"
   xml:space="preserve"
   id="svg2"
   version="1.1"><metadata
     id="metadata8"><rdf:RDF><cc:Work
         rdf:about=""><dc:format>image/svg+xml</dc:format><dc:type
           rdf:resource="http://purl.org/dc/dcmitype/StillImage" /></cc:Work></rdf:RDF></metadata><defs
     id="defs6" /><g
     transform="matrix(1.3333333,0,0,-1.3333333,0,531.85333)"
     id="g10"><g
       transform="scale(0.1)"
       id="g12"><path
         id="path14"
         style="fill:#40bc80;fill-opacity:1;fill-rule:nonzero;stroke:none"
         d="M 3350.41,1276.9 H 2712 v 796.81 c 0,352.57 -285.82,638.39 -638.4,638.39 h -796.79 -0.11 v 638.41 c 0,352.57 285.82,638.39 638.4,638.39 h 158.5 c 352.58,0 638.4,-285.82 638.4,-638.39 v -0.01 c 0,-352.57 285.82,-638.4 638.4,-638.4 h 0.01 c 352.57,0 638.39,-285.82 638.39,-638.39 V 1915.3 c 0,-352.58 -285.82,-638.4 -638.39,-638.4" /><path
         id="path16"
         style="fill:#508992;fill-opacity:1;fill-rule:nonzero;stroke:none"
         d="m 2073.6,0 h -158.4 c -352.57,0 -638.39,285.82 -638.39,638.398 0,352.582 -285.826,638.402 -638.412,638.402 h 0.008 C 285.828,1276.8 0,1562.62 0,1915.19 v 158.52 c 0,352.57 285.828,638.39 638.406,638.39 H 1276.7 v -796.8 c 0,-352.58 285.82,-638.4 638.4,-638.4 H 2712 v -0.1 -638.402 C 2712,285.82 2426.18,0 2073.6,0" /><path
         id="path18"
         style="fill:#208060;fill-opacity:1;fill-rule:nonzero;stroke:none"
         d="m 2712,1276.9 v 0 h -796.9 c -352.58,0 -638.4,285.82 -638.4,638.4 v 796.8 h 0.11 796.79 c 352.58,0 638.4,-285.82 638.4,-638.39 V 1276.9" /></g></g></svg>